<svg xmlns="http://www.w3.org/2000/svg" version="1.1" xmlns:xlink="http://www.w3.org/1999/xlink" width="1500" height="105" viewBox="0 0 1500 105"><svg xml:space="preserve" width="1500" height="105" data-version="2" data-id="lg_sQLJzvK7Kr76v0sbMl" viewBox="0 0 569 105" x="0" y="0"><rect width="100%" height="100%" fill="transparent"></rect><path d="M5.665 94.795q0-3.63 1.26-6.93 1.25-3.3 3.39-6.3 2.13-3 4.96-5.71t5.95-5.16q-2.6-3.21-4.69-7.05-2.09-3.85-3.59-8.05-1.5-4.21-2.3-8.65-.8-4.43-.8-8.85 0-3.58.59-7t1.85-6.43q1.25-3.01 3.22-5.54 1.97-2.53 4.71-4.36 2.74-1.83 6.31-2.84 3.57-1.02 8.02-1.02 4.45 0 7.8 1.7 3.34 1.69 5.58 4.49 2.24 2.8 3.38 6.41 1.13 3.6 1.13 7.41 0 2.91-.53 5.78-.53 2.88-1.59 5.53-1.05 2.65-2.67 4.95-1.62 2.3-3.77 4.03-2.15 1.72-4.86 2.8-2.71 1.07-5.98 1.25 2.3.97 3.62 1.79 1.31.82 2.25 1.51l15.05-9.47q.12-.09.36-.09.33 0 .67.27.33.27.33.69 0 .34-.3.76-.31.43-1.06.88l-14.11 8.6q.45.51.76 1.31.3.81.51 1.77.21.97.3 2.02.1 1.04.1 1.98 0 2.42-.5 5.27-.5 2.84-1.46 5.87-.95 3.03-2.31 6.09-1.37 3.05-3.08 5.88-1.71 2.84-3.73 5.3-2.03 2.47-4.33 4.29-2.3 1.81-4.83 2.86-2.53 1.04-5.22 1.04-2.43 0-4.35-.59-1.92-.59-3.25-1.74-1.34-1.15-2.06-2.85-.73-1.69-.73-3.9m26.82-41.11q2.4 0 4.42-.96 2.03-.95 3.7-2.61 1.66-1.67 2.93-3.92 1.27-2.26 2.14-4.88.86-2.62 1.3-5.48.44-2.86.44-5.7 0-3.33-.76-6.44-.76-3.1-2.33-5.49t-3.97-3.83q-2.39-1.44-5.66-1.44-3.48 0-6.23.89-2.76.9-4.86 2.5-2.11 1.61-3.6 3.82-1.5 2.2-2.46 4.87-.95 2.66-1.39 5.66-.44 3-.44 6.18 0 4.36.59 8.79.59 4.44 1.67 8.61 1.07 4.18 2.53 7.89 1.45 3.71 3.17 6.58 1.67-1.24 3.36-2.4 1.7-1.17 3.33-2.24 1.64-1.08 3.17-2.06 1.53-.99 2.8-1.86-.33-.58-.91-1.17-.57-.59-1.45-1.07-.88-.49-2.11-.84-1.22-.34-2.86-.5-.94-.09-2.01-.1-1.08-.02-2-.11-.92-.09-1.53-.36-.6-.27-.6-.88 0-.63.72-1.18.73-.54 2.33-.54h.19q.96 0 2.63.13 1.66.14 3.75.14m5.15 8.32q-1.15.76-2.6 1.8-1.46 1.05-3.08 2.34-1.62 1.28-3.3 2.8-1.68 1.51-3.31 3.24.88 1.72 1.68 3.11.8 1.4 1.45 2.39.65 1 1.12 1.53.47.53.68.53.09 0 .16-.18-.07.46-.25.88t-.54.42q-.24 0-.4-.15-1.45-1.03-2.92-2.68-1.47-1.65-2.92-3.77-2.42 2.43-4.51 5.01-2.09 2.59-3.63 5.32-1.55 2.72-2.44 5.54-.89 2.81-.89 5.69 0 1.03.18 1.98.18.96.65 1.7.47.74 1.26 1.18.78.44 1.96.44 1.61 0 3.23-.84 1.62-.83 3.21-2.28 1.59-1.45 3.12-3.41 1.52-1.95 2.92-4.18 1.39-2.22 2.63-4.6 1.24-2.37 2.24-4.67 1-2.3 1.74-4.42t1.17-3.85q.54-2.21.81-3.95.28-1.74.4-3.07.12-1.33.13-2.27.02-.94.05-1.58"></path><path d="M106.235 51.595q-1.7 1-3.28 1.95-1.59.96-3.2 2.01-1.6 1.06-3.28 2.28-1.68 1.21-3.53 2.72-1.51 3.94-3.28 8.14-1.78 4.21-3.73 8.22-1.95 4.01-4.07 7.6t-4.34 6.28q-2.23 2.7-4.52 4.29-2.28 1.59-4.55 1.59-1.15 0-1.97-.28-.82-.27-1.36-.72-.55-.46-.8-1.02-.26-.56-.26-1.13 0-.88.51-2.56.52-1.68 1.67-3.95 1.15-2.27 2.98-5.09 1.83-2.81 4.44-6.01 2.6-3.19 6.04-6.67 3.43-3.48 7.82-7.12 1.76-4.08 3-6.87 1.24-2.78 2.07-4.63.83-1.85 1.32-2.95.48-1.11.76-1.83-1.28 1.63-3.03 3.54-1.76 1.91-3.86 3.81-2.11 1.91-4.48 3.67-2.38 1.75-4.89 3.1t-5.1 2.16q-2.59.82-5.1.82-1.46 0-2-.77-.55-.77-.55-2.07 0-1.18.41-2.8.41-1.62 1.05-3.46.63-1.83 1.43-3.75.81-1.92 1.59-3.71.79-1.78 1.47-3.3.68-1.51 1.11-2.54-1.37.88-3.44 2.1-2.07 1.23-4.56 2.67-2.48 1.44-5.25 3.04t-5.52 3.24q-.43.24-.76.24-.36 0-.59-.23-.23-.22-.23-.59 0-.42.35-.92t1.23-1.01q3.96-2.33 6.95-4.11 2.98-1.77 5.19-3.07 2.21-1.3 3.75-2.18 1.55-.88 2.63-1.39 1.09-.52 1.82-.74.73-.23 1.33-.23.91 0 1.49.38.57.38.92.97.35.59.47 1.27t.12 1.32q0 1.3-.65 3.01-.65 1.71-1.62 3.56-.97 1.84-2.09 3.72-1.12 1.88-2.09 3.54-.97 1.67-1.62 2.97-.65 1.3-.65 2 0 .69.7.69 1.09 0 2.83-.74t3.86-2.03q2.12-1.28 4.48-3.03 2.36-1.74 4.69-3.73 2.33-2 4.5-4.15 2.16-2.15 3.92-4.3.12-.18.16-.65.05-.47.25-.97.19-.5.63-.88t1.35-.38q.76 0 1.21.19.45.18.68.5.23.31.29.75.06.44.06.99 0-.06-.03-.06-.06 0-.46 1.1-.39 1.11-1.04 3.06t-1.57 4.61q-.93 2.67-2.08 5.79 2.76-2 5.68-3.92 2.92-1.93 6.22-3.86.18-.09.36-.09.34 0 .62.27.29.27.29.69 0 .37-.29.79-.28.43-.98.85m-27.16 21.89q-1.02 1.09-2.14 2.78-1.13 1.7-2.21 3.65-1.09 1.95-2.09 4-1 2.04-1.74 3.83-.75 1.78-1.19 3.16-.43 1.38-.43 1.98 0 .7.66.7.79 0 1.68-.74.9-.75 1.85-2 .95-1.26 1.95-2.91 1-1.65 2-3.49 1-1.85 1.98-3.77.99-1.93 1.89-3.68 1.15-2.76 2.14-5.15.98-2.39 1.89-4.51-2.84 2.67-6.24 6.15"></path><path d="M140.175 39.695q0 .76-.28 1.77-.27 1.02-.69 2.15-.43 1.14-.91 2.32-.49 1.18-.91 2.28-.42 1.11-.7 2.08-.27.97-.27 1.63 0 .58.26.91.26.33.83.33.43 0 1.2-.31.77-.32 1.81-.88 1.05-.56 2.31-1.3 1.25-.75 2.64-1.59.31-.19.61-.19.33 0 .59.25.26.24.26.6 0 .4-.34.83-.33.44-1.12 1.02-3.93 2.94-7.19 4.54-3.25 1.6-5.19 1.6-1.57 0-2.48-.48-.91-.48-.91-1.51 0-.97.83-2.46.84-1.48 2.74-3.51.73-1.21 1.15-2.65.43-1.43.62-2.81.2-1.38.26-2.54.06-1.17.06-1.87 0-1.15-.38-1.77-.37-.62-1.25-.62-.97 0-1.89.86-.93.87-1.85 2.38-.92 1.51-1.83 3.57-.91 2.06-1.86 4.45-.96 2.4-1.96 5t-2.09 5.24q-.18.51-.45 1.06-.27.54-.62 1.01t-.79.77q-.44.3-.92.3-1.15 0-1.73-.51-.57-.51-.57-1.7 0-.33.04-.69.05-.36.29-.85l5.84-11.72q1.15-2.96 2.47-4.9 1.32-1.94 2.38-3.12-2.48 1.49-4.97 2.97-2.48 1.48-4.78 2.86-2.3 1.38-4.34 2.6-2.05 1.23-3.65 2.17-1.61.94-2.7 1.54-1.09.61-1.51.79-.24.15-.51.15-.34 0-.56-.24-.23-.24-.23-.64 0-.42.29-.92.28-.5 1.01-.92l8.08-4.73 3.18-1.89q1.61-.95 3.01-1.77 1.41-.82 2.5-1.45 1.09-.64 1.67-.97 1.45-.85 2.83-1.45 1.37-.61 2.74-1 1.36-.4 2.77-.61 1.4-.21 2.95-.3.66 0 1.41.41.74.41 1.36 1.09.62.68 1.03 1.54.41.86.41 1.8"></path><path d="m154.215 46.445-8.75 5.15q-.21.12-.39.12-.3 0-.45-.26-.15-.25-.15-.65 0-.42.21-.91.21-.48.78-.81l11.21-6.6q2.08-1.21 4.45-2.09 2.36-.88 4.79-1.44 2.44-.56 4.83-.82 2.39-.25 4.51-.25 1.21 0 2.27.16 1.06.17 1.84.49.77.31 1.21.77.44.45.44 1.03 0 .42-.31.6-.3.18-.71.26-.41.08-.85.11t-.68.15q-.18.57-.57 1.77-.4 1.19-.79 2.45-.39 1.26-.71 2.24-.32.98-.35 1.14-.39 1.27-1.07 3.22-.69 1.95-1.5 5.22.03 0 .68-.35.65-.34 1.69-.92 1.05-.57 2.38-1.33 1.33-.76 2.75-1.55l7.24-4.26q.42-.25.73-.25.33 0 .51.23t.18.56q0 .43-.33.99t-1.09.98l-16.11 9.44q-.6.37-1.12.52-.51.15-.93.15-.61 0-1.03-.27-.43-.27-.7-.76-.27-.48-.41-1.1-.13-.62-.13-1.32 0-.76.15-1.51.15-.76.39-1.46-.88 1.73-2.04 3-1.17 1.27-2.49 2.13-1.31.87-2.7 1.29-1.4.42-2.73.42t-2.51-.42q-1.18-.42-2.08-1.26-.89-.83-1.4-2.07-.52-1.24-.52-2.88 0-.96.2-2.15.2-1.18.53-2.39.33-1.21.76-2.37.42-1.17.87-2.14m15.56 2.88 3.21-8.87q-2.42 0-4.63.82-2.21.81-4.1 2.15-1.89 1.33-3.42 3.04t-2.61 3.51q-1.07 1.8-1.66 3.56-.59 1.75-.59 3.15 0 1.54.68 2.49.68.96 2.23.96.9 0 1.98-.56 1.07-.56 2.18-1.49 1.1-.92 2.18-2.09 1.07-1.16 1.98-2.36.91-1.19 1.59-2.33.68-1.13.98-1.98m135.08-.24q.37-.19.67-.19.33 0 .51.23.19.23.19.56 0 .43-.34.96-.33.53-1.03.95l-4.51 2.63q-2.18 1.27-5.05 2.98l-6.36 3.8q-3.21 1.91-5.37 2.68-2.17.78-3.62.78-.97 0-1.61-.29-.63-.29-1.04-.76-.41-.47-.58-1.07-.16-.61-.16-1.25 0-1.69.35-4.29.34-2.61.93-5.77.6-3.16 1.37-6.68.77-3.51 1.62-7.03.84-3.53 1.69-6.89t1.59-6.21q.74-2.84 1.33-4.98.59-2.13.9-3.19l-28.85 44.08q0 .03-.31.48-.3.45-.81 1-.52.54-1.23.98-.71.44-1.56.44-.79 0-1.01-.45-.23-.46-.23-.91 0-.18.01-.38.02-.2.08-.26l3.09-32.42q-1.24 2.15-3.07 5.16-1.84 3.02-4.12 6.48-2.29 3.47-4.97 7.24-2.68 3.77-5.61 7.43.81 1.88.81 4.03 0 1.66-.46 3.36-.47 1.69-1.37 3.27-.89 1.57-2.18 2.95-1.28 1.37-2.9 2.39-1.62 1.01-3.56 1.59-1.94.57-4.15.57-.09 0-.22-.12-.14-.12-.25-.3-.1-.18-.19-.39-.09-.22-.09-.37 0-.06.07-.15.08-.09.2-.09 2.54 0 4.8-1.13 2.25-1.14 3.93-2.91 1.68-1.77 2.67-3.94.98-2.16.98-4.25 0-1.09-.27-2.09-2.7 2.88-5.54 5.42-2.85 2.54-5.74 4.44-2.89 1.89-5.8 2.99-2.9 1.11-5.72 1.11-2.21 0-3.99-.41-1.79-.41-3.06-1.27-1.27-.87-1.97-2.23-.7-1.36-.7-3.24 0-2.48 1.08-4.57 1.07-2.09 2.84-3.78 1.78-1.7 4.11-3t4.86-2.16q2.52-.87 5.05-1.31 2.53-.44 4.74-.44 3.21 0 5.52.72 2.32.71 3.89 1.98 3.73-4.57 7.19-9.63 3.47-5.05 6.32-10.17 2.84-5.12 4.87-10.07 2.03-4.95 2.88-9.3 0-.07.21-.93.21-.86.63-2.12.43-1.25 1.02-2.71.59-1.45 1.33-2.68.74-1.22 1.63-2.04.9-.82 1.93-.82.84 0 1.36.38.51.38.8.94.29.56.4 1.26.1.69.1 1.33 0 .36-.01.69-.02.34-.05.58l-5.72 44.77 28.3-42.56q.1-.76.32-1.62.23-.86.67-1.6.44-.75 1.12-1.23.68-.48 1.68-.48 1.03 0 1.62.16.59.17.89.41.3.24.38.56.08.32.08.62 0 1.85-.53 4.85-.53 2.99-1.41 6.7-.88 3.71-2 7.89-1.12 4.17-2.27 8.37-1.15 4.19-2.27 8.17-1.12 3.98-2 7.28-.88 3.3-1.41 5.69-.53 2.4-.53 3.42 0 .37.05.82.04.46.23.83.18.38.54.66.36.27 1 .27.61 0 1.53-.32t2.31-1.11q4.7-2.66 8.84-5.13 4.15-2.46 7.69-4.64m-91.63 20.22q1.6 0 3.83-1.15 2.22-1.15 4.82-3.2 2.61-2.04 5.48-4.87 2.88-2.83 5.79-6.16-1.18-.88-2.99-1.39-1.8-.52-4.25-.52-2.12 0-4.39.37-2.27.36-4.46 1.06-2.2.69-4.17 1.71-1.96 1.01-3.43 2.36-1.47 1.34-2.35 2.99-.88 1.65-.88 3.59 0 2.73 1.88 3.97 1.88 1.24 5.12 1.24"></path><path d="M333.285 36.915q1.73 0 3.07.69 1.35.7 2.27 1.89.93 1.2 1.41 2.81.49 1.6.49 3.42 0 1.06-.25 2.33-.24 1.27-.69 2.62-.46 1.34-1.11 2.67-.65 1.34-1.44 2.46.58-.31 1.4-.76.81-.45 1.74-.98.92-.53 1.94-1.11 1.01-.57 1.98-1.12l4.69-2.75q.21-.12.58-.12.69 0 .69.72 0 1-1.27 1.91-1.09.73-2.85 1.82-1.75 1.09-3.79 2.13-2.05 1.04-4.15 1.85-2.11.8-3.92.92-2.36 1.76-5.54 2.83-3.18 1.08-7.42 1.08-2.09 0-3.53-.37-1.43-.36-2.31-1.06-.88-.69-1.27-1.71-.4-1.01-.4-2.34 0-1.94.79-4.15.79-2.21 1.95-4.32 1.17-2.1 2.5-3.92 1.33-1.81 2.42-2.99-.97.84-2.74 2.03-1.77 1.18-3.99 2.52-2.23 1.35-4.73 2.8-2.49 1.46-4.95 2.88-.36.15-.66.15-.4 0-.61-.23-.21-.22-.21-.59 0-.42.35-.89.35-.47 1.13-.95 4.61-2.7 7.84-4.65 3.24-1.95 5.61-3.32 2.36-1.36 4.11-2.18 1.76-.81 3.38-1.27 1.62-.45 3.37-.6 1.76-.15 4.12-.15m-12.11 22.7q1.91 0 3.72-.79 1.82-.78 3.55-2.14-.4-.46-.55-1.03-.15-.58-.15-1.18 0-1.06.7-1.59.69-.53 1.66-.53 1.03 0 2 .6.97-.69 1.85-1.66.87-.97 1.53-2.06.65-1.09 1.02-2.24.38-1.15.38-2.24 0-.94-.35-1.8-.34-.87-1.12-1.5-.77-.64-2.02-1.02-1.26-.38-3.05-.38-1.48 0-2.95.79-1.47.79-2.81 2.11-1.35 1.31-2.52 2.99-1.16 1.68-2.01 3.47-.85 1.79-1.33 3.51-.49 1.73-.49 3.15 0 1.57.7 2.56.7.98 2.24.98"></path><path d="m408.275 54.015 7.87-4.93q.39-.15.63-.15.43 0 .78.21.34.21.34.6 0 .43-.9 1.17-.91.74-2.21 1.59-1.31.84-2.7 1.68-1.39.83-2.39 1.44-1.33.87-3 2.1-1.66 1.23-3.43 2.38-1.77 1.15-3.48 1.95t-3.11.8q-1.24 0-2.1-.89-.86-.9-.86-2.86 0-1.18.36-2.77t1.21-3.68q1-2.48 1.74-4.36.74-1.88 1.23-3.21.48-1.33.72-2.19.25-.87.25-1.35 0-1.03-.76-1.03t-2.12.98q-1.36.99-3.04 2.59-1.68 1.61-3.51 3.68-1.84 2.07-3.5 4.28-1.67 2.21-3 4.36-1.33 2.15-2.03 3.91-.12.3-.45.59t-.77.51q-.44.23-.96.37-.51.13-.99.13-.82 0-1.43-.47-.6-.47-.6-1.62 0-.97.38-2.22.37-1.26.74-2.38.51-1.81 1.1-3.68.59-1.86 1.11-3.4.6-1.79 1.21-3.48.27-.46.59-.99.32-.53.56-1.07.24-.55.41-1.08.16-.53.16-.95 0-.76-.69-.76-1.43 0-3.26 1.02-1.83 1.01-3.78 2.63-1.95 1.62-3.89 3.66-1.94 2.05-3.57 4.12-1.64 2.07-2.82 3.97-1.18 1.89-1.63 3.22-.28.82-.5 1.42-.23.61-.5 1-.28.4-.67.59-.39.2-1.03.2-1.27 0-1.71-.71-.44-.71-.44-1.83 0-.52.31-1.59.3-1.08.8-2.47.5-1.39 1.1-3.01.61-1.62 1.23-3.24t1.19-3.13q.58-1.52.97-2.7l-14.65 8.63q-.39.21-.76.21-.36 0-.62-.21-.25-.21-.25-.58 0-.39.37-.9.38-.52 1.26-1.03l10.81-6.36q.39-.3.92-.61.53-.3 1.12-.54.59-.24 1.2-.39.6-.16 1.21-.16.66 0 1.19.32.53.32.9.79.36.47.56 1.04.19.58.19 1.09 0 .55-.07 1.08-.08.53-.3 1.3-.23.77-.62 1.89l-1.03 2.88q1.06-1.43 2.22-2.95 1.17-1.53 2.47-3 1.3-1.47 2.77-2.8 1.47-1.33 3.1-2.33 1.64-1 3.47-1.59 1.83-.59 3.86-.59.6 0 1.19.29.59.28 1.06.89.47.6.76 1.54.29.94.29 2.21 0 1.49-.44 3.41-.44 1.92-1.5 4.37 2.15-3.15 4.34-5.28 2.2-2.13 4.27-3.53 2.08-1.39 3.95-2.13 1.88-.74 3.39-1.11.85 0 1.79.25.94.24 1.7.71.75.47 1.25 1.19.5.73.5 1.7 0 .27-.03.54-.03.28-.12.58-.36 1.27-1 2.74-.64 1.47-1.36 2.98-.73 1.51-1.5 2.98t-1.38 2.76q-.6 1.28-1 2.3-.39 1.01-.39 1.59 0 .72.54.72.46 0 1.41-.57.96-.58 2.2-1.44 1.24-.86 2.69-1.89 1.45-1.03 2.91-1.94"></path><path d="m419.295 49.745-3.15 1.85q-.3.21-.7.21-.39 0-.63-.23-.25-.22-.25-.59 0-.39.35-.89t1.23-1.01l7.66-4.51q.85-2.4 2.19-4.14 1.35-1.74 2.97-2.87 1.62-1.14 3.39-1.7t3.44-.56q1.69 0 2.8.9 1.1.89 1.1 2.77 0 1.15-.83 2.4-.83 1.26-2.27 2.48-1.44 1.23-3.38 2.29-1.93 1.06-4.11 1.79 0 1.45-.05 2.75-.04 1.3-.04 2.45 0 .97.06 1.77.06.81.25 1.37.2.56.55.87.35.32.89.32.85 0 2.04-.68 1.2-.68 3.02-1.74 1.63-.97 4.17-2.42 2.55-1.45 6.21-3.54.12-.09.33-.09.34 0 .59.28.26.29.26.71 0 .37-.26.79-.25.43-.92.82-3 1.79-5.81 3.62-2.82 1.83-5.32 3.33-2.49 1.5-4.61 2.45-2.12.95-3.7.95-1.05 0-1.86-.45-.8-.46-1.36-1.45-.56-1-.85-2.62-.28-1.62-.28-3.95 0-.37.04-1.17.05-.8.15-1.73.11-.92.26-1.8.15-.87.36-1.36-.21.12-.62.36-.41.25-.95.56-.55.32-1.15.69-.61.36-1.21.72m17.13-10.53q.06-.18.06-.4 0-.75-.25-1.12-.26-.36-.87-.36-.69 0-1.6.53-.91.53-1.77 1.56-.87 1.03-1.55 2.57-.68 1.55-.92 3.54 1.24-.63 2.42-1.46 1.18-.84 2.14-1.7.95-.86 1.57-1.69.62-.84.77-1.47"></path><path d="M482.805 41.905q-1.15 0-2.87.65-1.73.65-3.79 1.79-2.06 1.13-4.28 2.68-2.23 1.54-4.36 3.36-2.14 1.81-4.06 3.83-1.92 2.01-3.34 4.04-.16.15-.16.68t-.16 1.11q-.17.57-.65 1.02-.49.46-1.61.46-.78 0-1.22-.18-.44-.18-.67-.5-.23-.32-.29-.76-.06-.44-.06-.98 0-.55.31-1.61.3-1.06.78-2.45.49-1.39 1.09-3 .61-1.6 1.23-3.21.62-1.6 1.18-3.11.56-1.52.95-2.73l-14.62 8.6q-.15.03-.26.04-.1.02-.16.02-.43 0-.62-.23-.2-.22-.2-.56 0-.42.32-.92t.92-.86q4.54-2.7 7.49-4.44 2.95-1.74 4.74-2.8 1.79-1.06 2.68-1.57.89-.52 1.35-.76.42-.24.77-.33.35-.09.77-.09.88 0 1.44.51.56.52.56 1.15 0 .64-.39 1.74-.4 1.11-.97 2.41-.58 1.3-1.18 2.65-.61 1.34-1.03 2.5-.18.45-.29.74-.11.28-.24.65-.14.36-.38.92t-.7 1.56q1.27-1.63 2.98-3.42t3.73-3.5q2.01-1.71 4.3-3.25 2.28-1.55 4.72-2.71 2.44-1.17 4.98-1.85 2.54-.68 5.06-.68 1.54 0 2.13.65.59.65.59 1.77 0 .91-.33 2.21-.34 1.3-.91 2.83-.58 1.53-1.3 3.27-.73 1.74-1.53 3.51-.8 1.78-1.61 3.56-.8 1.79-1.49 3.42 1.72-.69 3.6-1.81 1.87-1.12 4.01-2.52 2.13-1.39 4.51-3.01 2.38-1.62 5.1-3.31.21-.12.58-.12.72 0 .72.81 0 .43-.33.93t-.97.89q-3.6 2.24-6.51 4.27-2.9 2.03-5.31 3.6-2.41 1.57-4.39 2.5-1.98.92-3.68.92-1.03 0-1.75-.26-.73-.25-1.2-.68-.47-.42-.7-1.01-.22-.59-.22-1.23 0-.69.28-1.38.29-.68.81-1.46.93-2.06 2.08-4.32 1.16-2.25 2.12-4.28.97-2.03 1.64-3.6.66-1.58.66-2.27 0-.49-.39-.49"></path><path d="M532.155 19.295q-1.73 0-3.27.72-1.55.73-2.92 2-1.38 1.27-2.59 3.03-1.21 1.76-2.27 3.78-1.06 2.03-1.96 4.27-.89 2.24-1.62 4.51 4.09-2.93 7.18-5.57 3.09-2.63 5.18-4.81 2.09-2.18 3.13-3.86 1.04-1.68 1.04-2.74 0-.61-.37-.97-.38-.36-1.53-.36m3.05 17.86q.73.36.73.88 0 .78-.59 1.45-.59.67-1.54 1.2-.96.53-2.15.92-1.2.39-2.39.66-1.2.28-2.29.43-1.21.15-1.82.12-2.36-.06-4.66-.09l-4.45-.06q-.91 3.39-1.42 5.8-.52 2.4-.77 4.17-.26 1.77-.32 3.08-.06 1.3-.06 2.51 0 .67.18 1.06t.61.39q1.48 0 3.26-1 1.82-1 4.06-2.54l5.03-3.42q4.11-2.82 6.17-3.63.15-.06.61-.28.24-.09.45-.09.67 0 .67.7 0 .45-.4 1.06-.42.57-1.33 1.12-4.63 2.78-6.84 4.36l-5.18 3.75q-2.3 1.64-4.2 2.61-1.94.96-3.91.96-1.69 0-2.63-.9-.91-.91-1.35-2.23-.44-1.32-.53-2.83-.09-1.51-.09-2.69 0-2.3.26-4.57.25-2.28.68-4.36l-4.76 2.99-4.87 2.91q-.15.09-.33.09-.34 0-.64-.29t-.3-.71q0-.33.27-.76.27-.42 1-.84l5.36-3.06q2.54-1.51 4.9-3.06l.06-.27-3.87.09q-.3 0-.58.03-.27.03-.51.03-.52 0-.83-.32-.32-.32-.38-.71 0-.33.51-.63.52-.31 1.46-.55.93-.27 2.24-.5 1.3-.23 2.87-.41 1.82-5.69 3.94-9.87 2.12-4.17 4.77-6.9 2.64-2.72 5.91-4.06 3.27-1.33 7.39-1.33 1.91 0 2.77.59.86.59.86 1.65 0 1.46-1.28 3.51-1.29 2.06-3.61 4.56-2.31 2.5-5.54 5.3-3.22 2.8-7.12 5.73 1.93-.18 3.93-.33l3.94-.33q1.93-.15 3.8-.33 1.86-.19 3.55-.4.34-.09.49-.26.15-.16.51-.16.12 0 .3.06"></path><path d="M553.135 42.235q0 1.28.18 1.88.18.61.41 1.08.22.47.42 1.03.2.56.2 1.74 0 .81-.17 1.83-.17 1.01-.62 2.09-.45 1.07-1.27 2.12-.82 1.04-2.09 1.86l11.87-6.78q.21-.12.42-.12.33 0 .59.25.26.26.26.68 0 .34-.29.82-.29.49-.98.88-3.73 2.12-6.41 3.68t-4.57 2.68q-1.89 1.12-3.1 1.86-1.21.74-2.03 1.22-1.45.88-2.75 1.19-1.31.3-2.58.3-.97 0-1.4-.34-.44-.33-.43-.74.02-.41.47-.75.46-.35 1.3-.35 1.49 0 2.88-1.02 1.39-1.01 2.47-2.75 1.07-1.74 1.72-4.07.65-2.33.65-4.94 0-.39.17-1.51t.53-2.42q.36-1.3.95-2.55.59-1.24 1.41-1.87l-18.56 12.38q-.3.21-.63.21-.34 0-.55-.24-.21-.24-.21-.61 0-.42.32-.94.32-.51 1.07-.93 4.88-3.3 8.19-5.5 3.32-2.19 5.41-3.56l4.23-2.87q.94-.39 1.97-.62 1.03-.23 1.91-.23.97 0 1.59.32.62.32.62 1.01 0 .25-.56.79-.56.55-1.23 1.23-.66.68-1.22 1.37-.56.7-.56 1.21"></path></svg></svg>